<mxfile host="app.diagrams.net" modified="2024-03-01T07:22:34.871Z" agent="Mozilla/5.0 (Macintosh; Intel Mac OS X 10_15_7) AppleWebKit/537.36 (KHTML, like Gecko) Chrome/122.0.0.0 Safari/537.36" etag="WwI13FWhRXmHYH3gnNy4" version="24.0.0" type="github">
  <diagram name="Page-1" id="d4IhMq_CG_GZfpvDpSVi">
    <mxGraphModel dx="1114" dy="601" grid="1" gridSize="10" guides="1" tooltips="1" connect="1" arrows="1" fold="1" page="1" pageScale="1" pageWidth="827" pageHeight="1169" math="0" shadow="0">
      <root>
        <mxCell id="0" />
        <mxCell id="1" parent="0" />
        <mxCell id="wSQvO-TXLfBxeHZUAKMH-1" value="&lt;b&gt;User screens&lt;/b&gt;" style="rounded=0;whiteSpace=wrap;html=1;" parent="1" vertex="1">
          <mxGeometry x="294" y="70" width="120" height="60" as="geometry" />
        </mxCell>
        <mxCell id="wSQvO-TXLfBxeHZUAKMH-2" value="&lt;b&gt;UCG&lt;/b&gt;" style="rounded=0;whiteSpace=wrap;html=1;" parent="1" vertex="1">
          <mxGeometry x="294" y="190" width="120" height="60" as="geometry" />
        </mxCell>
        <mxCell id="wSQvO-TXLfBxeHZUAKMH-3" value="&lt;b&gt;Rich Relevance / Promote IQ&lt;/b&gt;" style="rounded=0;whiteSpace=wrap;html=1;" parent="1" vertex="1">
          <mxGeometry x="294" y="320" width="120" height="60" as="geometry" />
        </mxCell>
        <mxCell id="wSQvO-TXLfBxeHZUAKMH-12" value="&lt;font style=&quot;font-size: 20px;&quot;&gt;Personalisation sequence diagram&lt;/font&gt;" style="text;html=1;align=center;verticalAlign=middle;whiteSpace=wrap;rounded=0;" parent="1" vertex="1">
          <mxGeometry x="144" y="30" width="420" height="30" as="geometry" />
        </mxCell>
        <mxCell id="DUWWS3SACW7vPJlCMb2T-2" value="" style="shape=singleArrow;direction=north;whiteSpace=wrap;html=1;sketch=1;hachureGap=4;jiggle=2;curveFitting=1;" vertex="1" parent="1">
          <mxGeometry x="369" y="250" width="40" height="70" as="geometry" />
        </mxCell>
        <mxCell id="DUWWS3SACW7vPJlCMb2T-3" value="" style="shape=singleArrow;direction=south;whiteSpace=wrap;html=1;sketch=1;hachureGap=4;jiggle=2;curveFitting=1;" vertex="1" parent="1">
          <mxGeometry x="300" y="250" width="50" height="70" as="geometry" />
        </mxCell>
        <mxCell id="DUWWS3SACW7vPJlCMb2T-5" value="" style="shape=singleArrow;direction=south;whiteSpace=wrap;html=1;sketch=1;hachureGap=4;jiggle=2;curveFitting=1;" vertex="1" parent="1">
          <mxGeometry x="333.5" y="130" width="41" height="60" as="geometry" />
        </mxCell>
        <mxCell id="DUWWS3SACW7vPJlCMb2T-7" value="&lt;b&gt;Unbox&lt;/b&gt;" style="rounded=0;whiteSpace=wrap;html=1;" vertex="1" parent="1">
          <mxGeometry x="90" y="190" width="120" height="60" as="geometry" />
        </mxCell>
        <mxCell id="DUWWS3SACW7vPJlCMb2T-8" value="" style="shape=flexArrow;endArrow=classic;startArrow=classic;html=1;rounded=0;sketch=1;hachureGap=4;jiggle=2;curveFitting=1;" edge="1" parent="1">
          <mxGeometry width="100" height="100" relative="1" as="geometry">
            <mxPoint x="210" y="219.5" as="sourcePoint" />
            <mxPoint x="290" y="220" as="targetPoint" />
          </mxGeometry>
        </mxCell>
      </root>
    </mxGraphModel>
  </diagram>
</mxfile>
